<?xml version="1.0" encoding="UTF-8"?>
<svg xmlns="http://www.w3.org/2000/svg" xmlns:xlink="http://www.w3.org/1999/xlink" width="171px" height="150px" viewBox="0 0 384 336" version="1.1">
<g id="surface1">
<path style=" stroke:none;fill-rule:nonzero;fill:rgb(100%,100%,100%);fill-opacity:1;" d="M 12.464844 24.804688 C 5.691406 24.804688 0.203125 19.316406 0.203125 12.550781 C 0.203125 5.777344 5.691406 0.285156 12.464844 0.285156 C 25.988281 0.285156 47.4375 -1.070312 61.042969 2.164062 C 79.101562 6.480469 90.535156 18.460938 95.425781 36.457031 C 96.453125 40.855469 97.515625 45.253906 98.59375 49.652344 L 371.535156 49.652344 C 378.308594 49.652344 383.796875 55.140625 383.796875 61.914062 C 383.796875 63.242188 383.589844 64.515625 383.199219 65.707031 L 351.46875 194.089844 C 350.097656 199.671875 345.09375 203.410156 339.585938 203.402344 L 139.609375 203.433594 C 144.117188 219.707031 148.238281 228.523438 154.277344 232.585938 C 157.992188 235.082031 163.207031 236.371094 170.339844 236.96875 C 183.363281 238.070312 202.300781 237.285156 215.847656 237.285156 L 336.1875 237.285156 C 342.960938 237.285156 348.449219 242.773438 348.449219 249.546875 C 348.449219 256.320312 342.960938 261.8125 336.1875 261.8125 L 217.128906 261.8125 C 201.171875 261.8125 180.222656 262.71875 164.976562 260.957031 C 155.273438 259.84375 147.511719 257.496094 140.671875 252.898438 C 127.671875 244.167969 120.816406 229.328125 113.925781 202.019531 L 71.765625 42.878906 C 69.316406 33.863281 64.789062 28.386719 55.777344 26.058594 C 45.035156 23.292969 22.953125 24.804688 12.464844 24.804688 Z M 299.945312 276.046875 C 316.503906 276.046875 329.921875 289.464844 329.921875 306.023438 C 329.921875 322.582031 316.503906 336 299.945312 336 C 283.398438 336 269.96875 322.582031 269.96875 306.023438 C 269.96875 289.464844 283.398438 276.046875 299.945312 276.046875 Z M 168.527344 276.046875 C 185.085938 276.046875 198.503906 289.464844 198.503906 306.023438 C 198.503906 322.582031 185.085938 336 168.527344 336 C 151.96875 336 138.550781 322.582031 138.550781 306.023438 C 138.550781 289.464844 151.96875 276.046875 168.527344 276.046875 Z M 243.582031 74.179688 L 243.582031 118.75 L 344.882812 118.75 L 355.90625 74.179688 Z M 243.582031 143.273438 L 243.582031 178.90625 L 330.019531 178.90625 L 338.824219 143.273438 Z M 219.054688 178.90625 L 219.054688 143.273438 L 123.910156 143.273438 C 127.179688 155.15625 130.378906 167.03125 133.410156 178.90625 Z M 219.054688 118.75 L 219.054688 74.179688 L 104.890625 74.179688 C 108.828125 89.027344 112.964844 103.886719 117.109375 118.75 Z M 219.054688 118.75 "/>
</g>
</svg>
